<svg width="20" height="20" viewBox="0 0 20 20" fill="none" xmlns="http://www.w3.org/2000/svg">
    <mask id="a" style="mask-type:alpha" maskUnits="userSpaceOnUse" x="0" y="0" width="20" height="20">
        <path fill="#C4C4C4" d="M0 0h20v20H0z"/>
    </mask>
    <g mask="url(#a)" fill="#0064D2" stroke="#0064D2" stroke-width=".35">
        <path d="M7.913 1.825h-4.87a1.22 1.22 0 0 0-1.218 1.218v4.87a1.22 1.22 0 0 0 1.218 1.219h4.87a1.22 1.22 0 0 0 1.219-1.219v-4.87a1.22 1.22 0 0 0-1.219-1.218zm.173 6.088a.173.173 0 0 1-.173.173h-4.87a.173.173 0 0 1-.172-.173v-4.87c0-.095.077-.172.172-.172h4.87c.095 0 .173.077.173.172v4.87zM7.913 10.868h-4.87a1.22 1.22 0 0 0-1.218 1.219v4.87a1.22 1.22 0 0 0 1.218 1.218h4.87a1.22 1.22 0 0 0 1.219-1.219v-4.87a1.22 1.22 0 0 0-1.219-1.218zm.173 6.088a.173.173 0 0 1-.173.173h-4.87a.173.173 0 0 1-.172-.173v-4.87c0-.094.077-.172.172-.172h4.87c.095 0 .173.078.173.173v4.87zM16.956 10.868h-4.87a1.22 1.22 0 0 0-1.218 1.219v4.87a1.22 1.22 0 0 0 1.219 1.218h4.87a1.22 1.22 0 0 0 1.218-1.219v-4.87a1.22 1.22 0 0 0-1.219-1.218zm.173 6.088a.173.173 0 0 1-.173.173h-4.87a.173.173 0 0 1-.172-.173v-4.87c0-.094.078-.172.173-.172h4.87c.095 0 .172.078.172.173v4.87zM16.956 1.825h-4.87a1.22 1.22 0 0 0-1.218 1.218v4.87a1.22 1.22 0 0 0 1.219 1.219h4.87a1.22 1.22 0 0 0 1.218-1.219v-4.87a1.22 1.22 0 0 0-1.219-1.218zm.173 6.088a.173.173 0 0 1-.173.173h-4.87a.173.173 0 0 1-.172-.173v-4.87c0-.095.078-.172.173-.172h4.87c.095 0 .172.077.172.172v4.87z"/>
    </g>
</svg>
