<svg width="20" height="20" viewBox="0 0 20 20" fill="none" xmlns="http://www.w3.org/2000/svg">
    <mask id="a" style="mask-type:alpha" maskUnits="userSpaceOnUse" x="0" y="0" width="20" height="20">
        <path fill="#C4C4C4" d="M0 0h20v20H0z"/>
    </mask>
    <g mask="url(#a)" fill="#0064D2" stroke="#0064D2" stroke-width=".21">
        <path d="M16.548 1.667H3.452c-.986 0-1.785.8-1.785 1.785v13.096c0 .986.8 1.785 1.785 1.785h13.096c.986 0 1.785-.8 1.785-1.785V3.452c0-.986-.8-1.785-1.785-1.785zm.595 14.88a.595.595 0 0 1-.596.596H3.452a.595.595 0 0 1-.595-.595V3.452c0-.328.267-.595.595-.595h13.096c.328 0 .595.267.595.595v13.096z"/>
        <path d="M7.024 5.238H5.238a.595.595 0 1 0 0 1.19h1.786a.595.595 0 1 0 0-1.19zM14.762 5.238H9.405a.595.595 0 1 0 0 1.19h5.357a.595.595 0 0 0 0-1.19zM7.024 9.405H5.238a.595.595 0 1 0 0 1.19h1.786a.595.595 0 1 0 0-1.19zM14.762 9.405H9.405a.595.595 0 1 0 0 1.19h5.357a.595.595 0 1 0 0-1.19zM7.024 13.571H5.238a.595.595 0 1 0 0 1.19h1.786a.595.595 0 1 0 0-1.19zM14.762 13.571H9.405a.595.595 0 1 0 0 1.19h5.357a.595.595 0 1 0 0-1.19z"/>
    </g>
</svg>
