<svg width="20" height="20" viewBox="0 0 20 20" fill="none" xmlns="http://www.w3.org/2000/svg">
    <mask id="a" style="mask-type:alpha" maskUnits="userSpaceOnUse" x="0" y="0" width="20" height="20">
        <path fill="#C4C4C4" d="M0 0h20v20H0z"/>
    </mask>
    <g mask="url(#a)">
        <path d="m18.848 17.13-4.13-4.065a6.534 6.534 0 0 0 1.746-4.44C16.464 4.965 13.45 2 9.732 2 6.014 2 3 4.966 3 8.625c0 3.658 3.014 6.624 6.732 6.624a6.77 6.77 0 0 0 4.237-1.48l4.147 4.082c.202.199.53.199.732 0a.504.504 0 0 0 0-.721zm-9.116-2.9c-3.146 0-5.696-2.51-5.696-5.605 0-3.096 2.55-5.606 5.696-5.606 3.145 0 5.695 2.51 5.695 5.606 0 3.095-2.55 5.605-5.695 5.605z" fill="#0064D2" stroke="#0064D2" stroke-width=".4"/>
    </g>
</svg>
