<svg width="20" height="20" viewBox="0 0 20 20" fill="none" xmlns="http://www.w3.org/2000/svg">
    <mask id="a" style="mask-type:alpha" maskUnits="userSpaceOnUse" x="0" y="0" width="20" height="20">
        <path fill="#C4C4C4" d="M0 0h20v20H0z"/>
    </mask>
    <g mask="url(#a)" fill="#FF5E1F">
        <path d="M7.445 18.333a2.164 2.164 0 0 1-2.028-1.405l-.516-1.375a.779.779 0 0 0-.455-.454l-1.374-.516a2.173 2.173 0 0 1-1.24-1.2 2.17 2.17 0 0 1 .028-1.724l.608-1.337a.774.774 0 0 0 0-.643L1.86 8.341a2.176 2.176 0 0 1-.029-1.725c.229-.552.68-.99 1.24-1.2l1.376-.515a.779.779 0 0 0 .454-.455l.516-1.375A2.17 2.17 0 0 1 8.341 1.86l1.337.608a.771.771 0 0 0 .642 0h.001l1.337-.608a2.176 2.176 0 0 1 1.725-.03c.552.23.99.682 1.2 1.241l.515 1.376c.08.21.245.375.455.454l1.375.516a2.17 2.17 0 0 1 1.211 2.924l-.608 1.337a.775.775 0 0 0 0 .642l.608 1.338c.247.544.258 1.172.03 1.725-.23.552-.681.99-1.241 1.199l-1.376.516a.779.779 0 0 0-.454.455l-.516 1.374a2.172 2.172 0 0 1-1.2 1.24 2.173 2.173 0 0 1-1.724-.028l-1.337-.608a.771.771 0 0 0-.642 0l-1.337.608c-.284.129-.59.194-.897.194zm0-15.279a.784.784 0 0 0-.728.505l-.515 1.374a2.166 2.166 0 0 1-1.268 1.268l-1.374.515a.772.772 0 0 0-.445.43.77.77 0 0 0 .01.62l.608 1.337c.259.57.259 1.223 0 1.793l-.607 1.336a.768.768 0 0 0-.01.62.77.77 0 0 0 .445.43l1.374.516c.586.22 1.048.681 1.268 1.267l.515 1.375c.076.203.23.362.43.445.202.084.421.08.62-.01l1.336-.608a2.162 2.162 0 0 1 1.793 0l1.336.607c.199.09.418.094.62.01a.77.77 0 0 0 .43-.445l.516-1.374a2.164 2.164 0 0 1 1.267-1.268l1.375-.515a.772.772 0 0 0 .445-.43.768.768 0 0 0-.01-.62l-.608-1.337a2.164 2.164 0 0 1 0-1.792l.607-1.337a.768.768 0 0 0 .01-.618.77.77 0 0 0-.445-.431l-1.374-.516a2.164 2.164 0 0 1-1.268-1.268l-.515-1.374a.772.772 0 0 0-.43-.445.768.768 0 0 0-.62.01l-1.337.608c-.57.259-1.223.258-1.792 0l-1.337-.608a.783.783 0 0 0-.321-.07z"/>
        <path d="M7.917 9.305a1.39 1.39 0 0 1-1.39-1.39 1.39 1.39 0 0 1 2.778 0 1.39 1.39 0 0 1-1.388 1.39zM12.084 13.472a1.39 1.39 0 0 1-1.39-1.39 1.39 1.39 0 0 1 2.778 0 1.39 1.39 0 0 1-1.388 1.39zM7.916 13.472a.695.695 0 0 1-.555-1.111l4.167-5.556a.695.695 0 0 1 1.111.833l-4.167 5.556a.693.693 0 0 1-.556.278z"/>
    </g>
</svg>
