<svg width="20" height="20" viewBox="0 0 20 20" fill="none" xmlns="http://www.w3.org/2000/svg">
    <mask id="a" style="mask-type:alpha" maskUnits="userSpaceOnUse" x="0" y="0" width="20" height="20">
        <path fill="#C4C4C4" d="M0 0h20v20H0z"/>
    </mask>
    <g mask="url(#a)">
        <path d="M18.583 8.284 15.546 3.26a.517.517 0 0 0-.651-.206l-1.856.815-2.862-.848a.517.517 0 0 0-.398.044L6.484 4.887l-1.9-1.215a.517.517 0 0 0-.72.168l-2.79 4.613a.517.517 0 0 0 .165.704l1.174.748-.238.316a1.45 1.45 0 0 0 1.24 2.315 1.442 1.442 0 0 0 1.49 1.116c.076.332.266.624.541.83a1.438 1.438 0 0 0 .95.287 1.442 1.442 0 0 0 1.408 1.12c.44 0 .876-.2 1.16-.58l.047-.062 2.069 1.472a1.518 1.518 0 0 0 2.368-.925 1.522 1.522 0 0 0 1.521-.603c.191-.264.283-.57.283-.875a1.514 1.514 0 0 0 1.326-1.334c.485.011.968-.208 1.272-.63.236-.328.33-.728.264-1.126a1.5 1.5 0 0 0-.615-.984l-.502-.357 1.419-.896a.517.517 0 0 0 .167-.705zM3.666 11.338a.411.411 0 0 1-.58.083.414.414 0 0 1-.083-.58l.679-.904a.414.414 0 0 1 .662.496l-.678.905zm1.49 1.117a.414.414 0 0 1-.662-.496l.678-.906.477-.637a.411.411 0 0 1 .58-.083c.182.137.22.397.083.58l-1.156 1.542zm1.49 1.117a.411.411 0 0 1-.58.083.411.411 0 0 1-.082-.58l1.156-1.542.21-.28a.412.412 0 0 1 .58-.084.411.411 0 0 1 .083.58l-1.367 1.823zm2.169.211-.679.905a.414.414 0 0 1-.662-.496l.678-.905a.411.411 0 0 1 .58-.083c.182.137.22.397.083.58zm8.278-2.388a.47.47 0 0 1-.083.353.486.486 0 0 1-.675.11l-.375-.266-2.088-1.485a.517.517 0 1 0-.6.844l2.085 1.481c.21.154.259.45.107.66a.486.486 0 0 1-.675.111l-.164-.117-1.612-1.146a.517.517 0 0 0-.6.843l1.609 1.144c.211.153.26.45.108.66a.486.486 0 0 1-.675.11l-.574-.408-.869-.617a.517.517 0 0 0-.6.843l.854.607c.196.158.236.44.089.644a.486.486 0 0 1-.675.11L9.632 14.42l.01-.015a1.45 1.45 0 0 0-.676-2.235c.14-.267.193-.57.149-.874a1.44 1.44 0 0 0-.565-.954 1.44 1.44 0 0 0-1.237-.241 1.439 1.439 0 0 0-.464-.594 1.438 1.438 0 0 0-1.074-.275 1.446 1.446 0 0 0-.534.187 1.45 1.45 0 0 0-2.179-.326l-.84-.536 2.252-3.727.98.628-.648.358a.517.517 0 0 0-.266.418c-.025.368.05.737.217 1.067a2.085 2.085 0 0 0 2.788.92l2.402-1.199 1.217.018 4.607 3.243 1.128.803a.473.473 0 0 1 .194.31zm-1.009-2.158L11.63 6.101a.517.517 0 0 0-.29-.094l-1.504-.022H9.83c-.08 0-.16.018-.232.054L7.083 7.295a1.049 1.049 0 0 1-1.495-.73l4.503-2.49 2.836.84a.517.517 0 0 0 .354-.022l1.614-.71 2.54 4.202-1.35.852z" fill="#0064D2" stroke="#118AD7" stroke-width=".2"/>
    </g>
</svg>
