<svg width="20" height="20" viewBox="0 0 20 20" fill="none" xmlns="http://www.w3.org/2000/svg">
    <mask id="a" style="mask-type:alpha" maskUnits="userSpaceOnUse" x="0" y="0" width="20" height="20">
        <path fill="#C4C4C4" d="M0 0h20v20H0z"/>
    </mask>
    <g mask="url(#a)">
        <path d="M13.08 12.734h-1.465v-.456a3.77 3.77 0 0 0 1.045-.846h1.07c.988 0 1.79-.803 1.79-1.79V8.014c0-.636-.407-1.179-.976-1.38v-.247a4.725 4.725 0 0 0-4.72-4.72 4.725 4.725 0 0 0-4.72 4.72v.246a1.467 1.467 0 0 0-.976 1.381c0 .808.657 1.465 1.464 1.465h.52a3.752 3.752 0 0 0 1.922 2.799v.456H6.569a4.074 4.074 0 0 0-4.069 4.07v1.041c0 .27.219.488.488.488H16.66c.27 0 .488-.218.488-.488v-1.042a4.074 4.074 0 0 0-4.069-4.069zm1.464-3.092a.815.815 0 0 1-.814.814h-.46c.13-.307.221-.635.266-.977h1.008v.163zm0-1.628v.489h-.976v-.977h.488c.27 0 .488.22.488.488zm-8.463.489h-.489a.489.489 0 0 1 0-.977h.489v.977zm0-1.954v-.162a3.748 3.748 0 0 1 3.743-3.744 3.748 3.748 0 0 1 3.744 3.744v.162h-.317l-1.494-1.195a.488.488 0 0 0-.65.036 3.931 3.931 0 0 1-2.799 1.16H6.081zm.976 2.442V7.526h1.251c1.17 0 2.279-.405 3.165-1.148l1.118.894v1.719c0 .538-.154 1.04-.421 1.465h-2.02a.488.488 0 0 0 0 .976h.975c-.388.208-.831.326-1.3.326A2.77 2.77 0 0 1 7.056 8.99zm3.581 3.654v.578a.815.815 0 0 1-1.628 0v-.578a3.738 3.738 0 0 0 1.628 0zm5.534 4.712H3.477v-.554a3.096 3.096 0 0 1 3.092-3.092h1.533c.213.75.904 1.302 1.722 1.302s1.51-.552 1.722-1.302h1.533a3.096 3.096 0 0 1 3.093 3.092v.554z" fill="#0064D2" stroke="#0064D2" stroke-width=".2"/>
    </g>
</svg>
